PathFileType	4	(X/Y/Z)	C:/Users/beibeiliu/ov580/test_trc/User3\sequence.33_training_dense_right.trc
DataRate	CameraRate	NumFrames	NumMarkers	Units	OrigDataRate	OrigDataStartFrame	OrigNumFrames
120	120	10	19	mm	120	28	219
Frame#	Time	ThumbCMC			ThumbMCP			ThumbIP			ThumbTip			IndexMCP			IndexPIP			IndexTip			MiddleMCP			MiddlePIP			MiddleTip			RingMCP			RingPIP			RingTip			PinkyMCP			PinkyPIP			PinkyTip			BackHand1			BackHand2			BackHand3	
		X0	Y0	Z0	X1	Y1	Z1	X2	Y2	Z2	X3	Y3	Z3	X4	Y4	Z4	X5	Y5	Z5	X6	Y6	Z6	X7	Y7	Z7	X8	Y8	Z8	X9	Y9	Z9	X10	Y10	Z10	X11	Y11	Z11	X12	Y12	Z12	X13	Y13	Z13	X14	Y14	Z14	X15	Y15	Z15	X16	Y16	Z16	X17	Y17	Z17	X18	Y18	Z18	
27	0.225	96.6801	-13.9069	58.5037	74.5561	-18.4345	31.8824	58.4352	-21.1775	11.9017	47.383	-28.6274	-9.8587	120.111	-11.8564	-17.1938	118.894	-6.14209	-38.1061	127.212	-4.13962	-63.8313	128.924	-35.8685	-20.4457	120.305	-54.2438	-46.4639	98.7626	-74.9386	-60.4316	138.337	-57.5225	-12.1129	126.462	-75.1621	-26.393	103.139	-99.4927	-31.5555	152.841	-72.1348	4.32006	139.417	-86.1068	-12.1272	126.299	-104.298	-20.6153	152.444	-29.4553	36.0778	157.829	-27.3656	64.8549	132.018	-7.92589	50.439	
28	0.233333	92.4334	-5.50765	59.7477	76.5462	-13.1801	32.7293	60.2572	-16.3926	9.41754	50.8026	-24.204	-10.5363	116.35	-7.25737	-15.5577	117.561	-4.99991	-42.0818	121.789	-3.5252	-61.1438	121.879	-33.302	-24.9918	110.346	-49.6358	-44.4926	85.494	-79.7087	-52.9488	134.386	-50.7683	-10.8165	122.716	-65.9207	-29.8558	100.944	-89.1456	-38.7571	149.022	-64.1033	2.95323	144.944	-81.2472	-11.7009	136.781	-97.8936	-27.9064	154.473	-26.9238	37.956	155.269	-21.1345	62.7121	131.367	-1.67868	46.902	
29	0.241667	92.1932	-2.53237	56.3011	75.113	-7.30878	34.8624	57.6303	-8.86188	4.54824	49.6638	-19.6662	-14.7922	114.508	-3.79746	-18.8223	111.742	-0.571691	-43.1511	111.427	0.942035	-64.6924	122	-31.4946	-23.6868	104.2	-48.5227	-43.7771	80.2338	-71.5174	-48.563	131.103	-45.4308	-13.4586	119.805	-61.5215	-32.349	101.109	-85.3391	-43.4729	146.158	-58.7262	2.00456	146.915	-73.7833	-13.0979	142.329	-88.3332	-31.0309	148.081	-20.5332	32.8262	151.901	-18.6964	64.4859	128.447	2.89099	46.0722	
30	0.25	94.0988	-0.595003	60.6148	71.4969	-0.161434	34.3341	61.1701	-8.20533	6.75043	51.4196	-16.9966	-12.0391	108.629	2.54119	-14.9231	107.942	0.150088	-46.8294	105.699	-2.40213	-66.9574	116.88	-28.7498	-26.5267	100.26	-45.658	-43.7252	73.1141	-71.9231	-44.7478	131.049	-40.3373	-14.4203	120.261	-57.6484	-34.5329	98.9762	-73.3421	-46.3317	146.184	-56.262	2.76711	145.863	-70.69	-16.9903	147.448	-82.6474	-32.2261	151.765	-20.0892	34.4855	153.204	-17.4596	61.9594	129.631	4.71012	46.7958	
31	0.258333	91.8075	3.61764	57.8951	68.8178	2.32219	31.9625	60.5374	-5.19885	5.86619	53.4896	-17.139	-17.3074	105.833	3.57746	-16.7182	96.7193	3.30919	-47.1376	88.7452	-3.85281	-69.5215	112.475	-19.9146	-23.7453	93.3661	-37.5027	-43.222	67.0029	-62.2045	-44.8666	128.276	-36.7554	-19.0901	114.352	-49.9515	-40.0172	97.2919	-68.0329	-50.4735	146.011	-52.8259	-2.46803	147.032	-65.9855	-18.1377	143.777	-78.493	-40.1378	148.069	-14.791	31.502	149.451	-12.427	59.3861	123.228	10.3083	47.2529	
32	0.266667	89.1379	5.88606	58.6404	68.7946	3.33891	31.404	55.614	-4.10419	3.65327	54.8675	-18.8715	-13.7084	97.9241	8.62385	-22.1474	89.2745	1.71217	-47.2316	76.17	-11.9717	-67.3884	108.821	-16.9762	-28.3424	89.4343	-33.9739	-46.8943	63.0209	-58.6892	-43.3128	126.092	-27.299	-20.2791	114.523	-43.9155	-44.3495	94.3427	-63.7332	-53.4895	144.378	-48.3469	-2.88443	142.337	-57.0363	-21.7014	139.772	-72.1332	-40.0579	146.163	-12.0116	30.8671	147.578	-9.25297	57.8905	124.508	8.70539	44.105	
33	0.275	85.0757	10.6555	56.7285	64.2612	5.57721	31.2304	51.3734	-3.94122	6.4991	56.3416	-21.5127	-13.9218	95.8832	7.14488	-22.7081	82.7345	-0.930062	-48.2037	64.1128	-18.3909	-60.1388	107.943	-9.51643	-27.1811	89.2169	-27.851	-49.9903	62.0506	-55.1793	-45.6099	125.393	-21.7525	-19.3362	114.11	-36.9988	-46.164	95.2722	-57.527	-53.5133	142.12	-43.0146	-1.639	138.508	-52.2436	-24.3372	130.587	-70.9209	-45.9483	141.351	-6.15435	30.3618	147.576	-5.57584	60.6048	123.24	14.2327	44.9328	
34	0.283333	84.2443	11.2014	54.8305	60.9683	5.19739	27.4937	52.7495	-6.40548	2.45712	54.6954	-23.1449	-12.9401	88.8911	10.4574	-24.8647	76.2831	-0.501352	-45.5999	52.9507	-25.0758	-53.4504	108.063	-2.83273	-28.4787	92.2433	-19.1931	-53.6646	66.2569	-44.8971	-51.1542	125.21	-17.9374	-23.6372	113.146	-28.2165	-47.8603	92.0542	-52.1701	-53.5047	137.407	-38.499	-10.3109	133.492	-48.7948	-28.3628	117.692	-64.1656	-44.7583	138.439	-4.07193	27.8217	145.072	-3.83008	53.9434	121.261	15.5112	42.7961	
35	0.291667	79.486	12.5338	50.5674	57.1915	5.6132	29.2175	50.0983	-7.63615	2.70709	51.7048	-25.9688	-12.4477	84.215	14.5036	-25.6901	66.0245	4.2349	-46.0247	43.608	-23.48	-46.0788	108.956	-0.279567	-31.6678	89.7949	-10.1947	-57.7996	61.782	-36.8393	-56.1709	121.649	-14.9125	-26.5593	109.5	-25.1737	-50.9356	82.5754	-47.1404	-52.0137	132.34	-35.6598	-9.11413	124.798	-45.8615	-32.9341	99.6371	-64.0589	-42.0101	137.983	-4.52397	25.5699	144.723	-3.65732	51.7928	116.693	16.4441	38.0014	
36	0.3	77.6299	15.0318	48.7967	55.3591	6.43793	27.7094	46.3365	-7.30925	0.859584	48.8155	-28.1417	-18.7975	84.2131	14.5906	-28.4189	61.4335	1.71929	-50.1205	41.65	-21.4055	-43.3879	106.634	6.19675	-36.2203	86.5903	-4.18108	-62.9853	61.4123	-33.7971	-57.7437	117.503	-10.9626	-31.5063	100.467	-23.4703	-54.6245	79.444	-40.9523	-50.6005	124.235	-32.6777	-13.032	112.858	-41.781	-35.9579	88.722	-60.3432	-37.0897	134.948	-6.13031	18.2309	142.205	-3.59567	49.4739	115.644	17.5671	35.6817	
